<svg width="242" height="246" xmlns="http://www.w3.org/2000/svg"><g fill-rule="nonzero" fill="none"><path d="M185.599 170.947c-2.763 4.81-3.316 10.295-1.978 15.295 1.343 5 4.567 9.488 9.36 12.245 4.816 2.78 10.324 3.345 15.33 2.007 5-1.338 9.482-4.574 12.244-9.361 2.78-4.81 3.34-10.318 1.996-15.33-1.338-5-4.568-9.487-9.36-12.244-4.81-2.78-10.319-3.334-15.33-1.996a20.076 20.076 0 00-12.25 9.396l-.012-.012zm-16.34 28.168a82.347 82.347 0 01-17.319 9.764 81.511 81.511 0 01-31.208 6.23c-5.854 0-11.771-.664-17.66-1.962a83.353 83.353 0 01-11.494-3.426c-2.959-1.124-5.48-2.543-8.334-4.031-2.388-1.24-2.93-4.55-.969-6.736 1.107-1.217 1.332-1.546 2.405-2.792 1.073-1.246 2.157-2.503 3.23-3.737 1.586-1.846 3.962-2.792 6.996-1.217 1.65.877 2.797 1.384 4.62 2.042a61.685 61.685 0 007.457 2.162c4.395.98 9.003 1.477 13.738 1.477a63.321 63.321 0 0024.298-4.822c7.232-2.987 13.94-7.365 19.742-12.965a38.245 38.245 0 015.104-17.233v-.035c5.295-9.17 13.813-15.33 23.29-17.867a38.133 38.133 0 0120.935.317 93.72 93.72 0 00-5.767-44.848c-6.87-17.665-19.056-33.26-35.568-44.23-1.108-.738-2.192-1.367-3.357-2.019-2.959-1.707-3.437-4.221-2.74-6.551.48-1.575.952-3.155 1.425-4.736.473-1.58.629-1.943 1.073-3.535.778-2.826 3.864-4.147 6.194-2.803 2.965 1.707 5.842 3.322 8.657 5.243 19.12 13.046 33.25 31.323 41.278 51.959 7.526 19.344 9.706 40.758 5.64 61.89a38.29 38.29 0 019.21 16.449c2.533 9.453 1.448 19.892-3.846 29.073a38.27 38.27 0 01-52.368 14.055c-6.437-3.725-11.397-9.02-14.661-15.116z" fill="#4BC1EC"/><path d="M120.727 58.516c5.56 0 10.594-2.255 14.24-5.9a20.077 20.077 0 005.9-14.24c0-5.56-2.256-10.594-5.9-14.24a20.077 20.077 0 00-14.24-5.9 20.077 20.077 0 00-14.24 5.9 20.063 20.063 0 00-5.9 14.235c0 5.56 2.255 10.595 5.894 14.24a20.085 20.085 0 0014.246 5.905zm32.597.116a82.387 82.387 0 0117.106 10.11c8.45 6.489 15.619 14.58 21.005 23.912 2.925 5.064 5.307 10.526 7.123 16.276a82.73 82.73 0 012.786 11.661c.507 3.126.536 6.016.675 9.246.12 2.682-2.48 4.81-5.347 4.204-1.609-.352-2.007-.38-3.627-.686l-4.857-.923c-2.387-.45-4.394-2.042-4.544-5.45-.07-1.869-.196-3.126-.542-5.03a61.848 61.848 0 00-1.863-7.543c-1.356-4.291-3.23-8.53-5.595-12.631a63.453 63.453 0 00-16.316-18.635c-6.206-4.763-13.346-8.38-21.086-10.6a38.19 38.19 0 01-17.51 4.222c-10.594 0-20.186-4.297-27.135-11.241a38.318 38.318 0 01-10.215-18.289 93.773 93.773 0 00-35.93 27.401c-11.864 14.782-19.276 33.14-20.521 52.923-.087 1.326-.093 2.578-.07 3.921 0 3.415-1.937 5.081-4.302 5.647-1.603.369-3.212.755-4.81 1.124-1.603.381-2.001.427-3.593.842-2.838.744-5.525-1.274-5.525-3.968 0-3.414-.047-6.713.213-10.116A111.981 111.981 0 0133.206 63.28c12.982-16.177 30.423-28.768 50.742-35.815a38.409 38.409 0 019.66-16.213C100.541 4.297 110.132 0 120.727 0c10.594 0 20.186 4.297 27.135 11.24 6.944 6.945 11.241 16.542 11.241 27.137a38.21 38.21 0 01-5.779 20.255z" fill="#FBBF00"/><path d="M55.82 170.924a20.101 20.101 0 00-12.233-9.36c-4.995-1.339-10.485-.78-15.295 1.995l-.006-.012-.023.006c-4.793 2.768-8.017 7.244-9.36 12.244-1.24 4.643-.854 9.701 1.418 14.252l.116.12.467.924c2.78 4.821 7.26 8.051 12.244 9.395 4.995 1.326 10.485.778 15.29-2.007a20.06 20.06 0 009.389-12.245c1.338-4.988.779-10.485-1.996-15.283l-.011-.03zm113.515 63.701a112.07 112.07 0 01-65.64 9.765c-20.509-3.155-40.135-11.974-56.405-26.058a38.375 38.375 0 01-18.848-.248c-9.072-2.434-17.262-8.19-22.591-16.714l-.018-.011-.086-.156a40.983 40.983 0 01-.594-.992l-.144-.294a38.19 38.19 0 01-3.703-28.814 38.204 38.204 0 0116.65-22.528l.122-.121 1.096-.64c6.448-3.72 13.513-5.364 20.428-5.139a82.427 82.427 0 01.202-19.875 81.572 81.572 0 0110.208-30.146c2.924-5.064 6.46-9.862 10.531-14.31a82.508 82.508 0 018.71-8.24c2.45-2.002 4.942-3.473 7.664-5.209 2.273-1.442 5.41-.254 6.31 2.532.507 1.569.68 1.926 1.222 3.484.543 1.557 1.09 3.114 1.633 4.671.801 2.296.432 4.822-2.452 6.662-1.58.992-2.606 1.73-4.083 2.981a60.43 60.43 0 00-5.6 5.382c-3.04 3.322-5.773 7.065-8.144 11.165a63.5 63.5 0 00-7.982 23.45c-1.02 7.752-.582 15.763 1.367 23.578a38.227 38.227 0 0112.383 13.034l1.245 2.163v.179a38.26 38.26 0 012.602 26.778 38.331 38.331 0 01-10.74 17.989 93.881 93.881 0 0041.71 17.423c18.74 2.884 38.337.121 56.095-8.685a49.29 49.29 0 003.42-1.904c2.964-1.713 5.375-.865 7.042.9 1.13 1.205 2.26 2.4 3.386 3.605 1.13 1.194 1.366 1.522 2.526 2.693 2.053 2.082 1.66 5.416-.67 6.771-2.947 1.713-5.778 3.391-8.852 4.88z" fill="#E42271"/></g></svg>