<svg xmlns="http://www.w3.org/2000/svg" xmlns:xlink="http://www.w3.org/1999/xlink" width="920" height="314"><defs><path id="a" d="M98.446 87.483V.343H.851v87.14h97.595z"/></defs><g fill="none" fill-rule="evenodd"><path fill="#FFF" d="M402.982 128.033c0-12.247-7.37-20.336-19.144-24.821-3.41-1.31-5.39-2.187-8.802-3.607-4.398-1.859-7.92-4.592-7.92-9.623 0-5.574 5.06-10.166 10.56-10.166 6.933 0 10.672 3.497 13.864 6.34l8.912-10.386c-5.832-6.342-13.532-9.841-23.435-9.841-13.972 0-25.963 10.169-25.963 24.49 0 11.592 4.508 17.933 18.812 23.729 3.08 1.201 5.722 2.075 8.03 2.951 5.062 1.86 8.804 5.359 8.804 10.715 0 6.451-5.832 11.152-12.323 11.152-7.48 0-12.763-3.5-16.505-7.652l-9.79 10.494c7.922 8.529 15.402 11.592 26.734 11.592 14.524 0 28.166-10.606 28.166-25.367M442.37 97.965V83.86h-11.222v-18.37h-15.403v18.37h-7.593v14.104h7.593v53.027h15.513V97.965h11.112M500.023 116.66c0 11.591-5.722 22.962-19.145 22.962-11.551 0-18.045-9.075-18.045-22.086 0-11.261 6.164-22.086 18.705-22.086 11.002 0 18.485 9.184 18.485 21.21zm14.741 34.332v-67.13h-14.082v8.746c-3.631-6.123-12.323-10.06-21.784-10.06-20.795 0-32.127 16.402-32.127 35.206 0 19.902 12.433 34.879 31.907 34.879 15.733 0 22.004-10.715 22.004-10.715v9.074h14.082zM547.001 97.2v53.792h-14.634V97.2h-7.59V83.861h7.48v-2.735c0-13.775 8.033-22.194 21.675-22.194 1.539 0 3.526.161 4.847.288l1.424.148v13.997l-.607-.169c-.975-.254-2.965-.705-4.785-.705-4.983 0-7.833 2.439-7.918 10.972l-.002.398h19.694v-2.735c0-13.775 8.03-22.194 21.672-22.194 1.54 0 3.528.161 4.85.288l1.424.148v13.997l-.377-.107c-.86-.234-3.039-.767-5.015-.767-4.984 0-7.836 2.439-7.92 10.972l-.003.398h11.115v13.34h-11.003v53.791h-14.633V97.2H547zM661.093 147.058v-17.275c-6.052 4.264-12.54 7.873-21.564 7.873-15.293 0-25.964-13.888-25.964-29.085 0-14.761 11.112-27.772 25.964-27.772 13.314 0 21.125 7.873 21.125 7.873v-17.93s-10.673-5.25-21.125-5.25c-23.985 0-42.468 20.556-42.468 44.39 0 23.289 18.043 43.08 41.478 43.08 11.003 0 20.134-4.047 22.554-5.904M675.397 150.992h15.623v-67.13h-15.623v67.13zm17.711-82.55c0-5.355-4.399-9.729-9.79-9.729-5.39 0-9.794 4.374-9.794 9.73 0 5.359 4.403 9.732 9.793 9.732 5.392 0 9.791-4.373 9.791-9.732zM749.112 83.75c-2.972-1.201-5.834-1.53-8.254-1.53-13.752 0-17.823 11.371-17.823 11.371v-9.73h-14.302v67.131h14.961v-36.516c0-7.546 3.632-17.385 13.754-17.385 3.082 0 6.822 1.42 6.822 1.42l4.842-14.761M807.532 147.167v-14.98c-4.4 2.952-10.892 6.56-18.592 6.56-13.755 0-21.455-8.528-21.455-19.68 0-13.557 7.813-22.524 21.455-22.524 10.12 0 18.263 5.904 18.263 5.904V87.69c-5.722-3.5-11.772-5.14-18.815-5.14-22.886 0-36.306 17.275-36.306 36.737 0 20.445 16.832 33.347 36.088 33.347 11.55 0 19.362-5.466 19.362-5.466"/><g transform="translate(820.435 65.15)"><mask id="b" fill="#fff"><use xlink:href="#a"/></mask><path fill="#FFF" d="M.851 85.843h15.62V.343H.852zM83.036 44.625H46.618c0-4.485 5.942-14.76 18.265-14.76 14.964 0 18.153 11.479 18.153 14.76zM98.44 56.323C98.771 33.361 87.879 17.4 65.323 17.4c-20.244 0-35.317 16.183-35.317 35.754 0 20.773 15.073 34.33 35.097 34.33 16.502 0 28.054-9.511 31.907-18.586l-13.205-6.123c-3.301 6.888-10.56 11.807-19.252 11.807-10.782 0-18.594-8.089-18.594-18.258h52.48z" mask="url(#b)"/></g><path fill="#C8A564" d="M382.449 185.136h-7.485l-8.494 20.31-9.926-20.31h-8.175l14.651 28.332-8.547 17.828h8.017l19.959-46.16M412.812 201.49c0 5.49-3.502 10.13-9.872 10.13-6 0-9.768-4.747-9.768-10.236 0-5.487 3.821-10.234 9.768-10.234 6.688 0 9.872 4.853 9.872 10.34zm7.488-.156c0-9.444-7.17-17.041-17.253-17.041-9.608 0-17.412 7.542-17.412 17.041 0 10.182 7.749 16.982 17.516 16.982 10.724 0 17.149-7.594 17.149-16.982zM454.272 206.24v-21.104h-7.22v18.783c0 6.276-2.283 7.49-6.318 7.49-4.195 0-6.741-1.214-6.741-7.65v-18.623h-7.219v21.104c0 7.646 5.68 12.076 14.121 12.076 7.802 0 13.377-4.955 13.377-12.076M482.246 185.084c-1.434-.58-2.813-.737-3.982-.737-6.634 0-8.598 5.487-8.598 5.487v-4.698h-6.903v32.394h7.221v-17.623c0-3.641 1.75-8.386 6.634-8.386 1.489 0 3.293.685 3.293.685l2.335-7.122M528.959 202.386c0 5.382-3.714 8.967-8.757 8.967-6.054 0-9.238-3.956-9.238-9.598 0-5.964 3.769-10.395 9.183-10.395 6.318 0 8.812 5.541 8.812 11.026zm7.433-.525c0-9.073-5.68-17.358-15.553-17.358-4.354 0-7.91 2.009-10.089 5.487v-4.854h-7.06v46.372h7.379v-18.097s2.549 4.905 10.034 4.905c9.66 0 15.289-7.908 15.289-16.455zM566.489 197.64h-17.57c0-2.163 2.866-7.123 8.81-7.123 7.221 0 8.76 5.54 8.76 7.124zm7.432 5.644c.16-11.078-5.095-18.78-15.978-18.78-9.768 0-17.039 7.809-17.039 17.25 0 10.024 7.271 16.562 16.932 16.562 7.963 0 13.539-4.586 15.396-8.965l-6.37-2.953c-1.593 3.322-5.098 5.697-9.292 5.697-5.2 0-8.969-3.906-8.969-8.811h25.32zM605.56 201.49c0 5.49-3.505 10.13-9.875 10.13-5.997 0-9.768-4.747-9.768-10.236 0-5.487 3.823-10.234 9.768-10.234 6.688 0 9.874 4.853 9.874 10.34zm7.484-.156c0-9.444-7.166-17.041-17.252-17.041-9.609 0-17.412 7.542-17.412 17.041 0 10.182 7.751 16.982 17.519 16.982 10.72 0 17.145-7.594 17.145-16.982zM644.735 202.386c0 5.382-3.717 8.967-8.76 8.967-6.051 0-9.235-3.956-9.235-9.598 0-5.964 3.769-10.395 9.183-10.395 6.317 0 8.812 5.541 8.812 11.026zm7.432-.525c0-9.073-5.683-17.358-15.555-17.358-4.353 0-7.91 2.009-10.086 5.487v-4.854h-7.06v46.372h7.379v-18.097s2.548 4.905 10.034 4.905c9.66 0 15.288-7.908 15.288-16.455zM658.642 217.53h7.537v-41.254h-7.537zM698.295 197.64h-17.571c0-2.163 2.865-7.123 8.811-7.123 7.22 0 8.76 5.54 8.76 7.124zm7.433 5.644c.157-11.078-5.098-18.78-15.981-18.78-9.765 0-17.039 7.809-17.039 17.25 0 10.024 7.274 16.562 16.932 16.562 7.965 0 13.539-4.586 15.396-8.965l-6.37-2.953c-1.593 3.322-5.096 5.697-9.29 5.697-5.202 0-8.969-3.906-8.969-8.811h25.32zM757.75 206.24v-21.104h-7.22v18.783c0 6.276-2.282 7.49-6.319 7.49-4.192 0-6.738-1.214-6.738-7.65v-18.623h-7.222v21.104c0 7.646 5.68 12.076 14.122 12.076 7.8 0 13.377-4.955 13.377-12.076M794.483 217.53v-21.633c0-7.067-4.301-11.394-11.201-11.394-7.802 0-10.034 5.17-10.034 5.17v-4.537h-7.005v32.394h7.219v-17.623c0-3.164 1.486-8.757 7.537-8.757 4.247 0 6.265 2.006 6.265 7.968v18.412h7.219M802.658 217.53h7.537v-32.394h-7.537v32.394zm8.545-39.83c0-2.585-2.123-4.697-4.724-4.697-2.602 0-4.723 2.112-4.723 4.697s2.121 4.693 4.723 4.693c2.6 0 4.724-2.108 4.724-4.693zM832.172 180.073v-6.751s-1.805-.213-3.027-.213c-6.581 0-10.457 4.06-10.457 10.711v1.316h-3.61v6.437h3.662v25.957h7.062v-25.957h5.307v-6.437h-5.361c0-4.272 1.381-5.486 3.823-5.486 1.222 0 2.601.423 2.601.423M835.251 217.53h7.535v-32.394h-7.535v32.394zm8.546-39.83c0-2.585-2.123-4.697-4.725-4.697-2.6 0-4.724 2.112-4.724 4.697s2.123 4.693 4.724 4.693c2.602 0 4.725-2.108 4.725-4.693zM874.902 197.64h-17.569c0-2.163 2.868-7.123 8.812-7.123 7.219 0 8.757 5.54 8.757 7.124zm7.433 5.644c.16-11.078-5.096-18.78-15.976-18.78-9.77 0-17.041 7.809-17.041 17.25 0 10.024 7.27 16.562 16.934 16.562 7.96 0 13.536-4.586 15.393-8.965l-6.37-2.953c-1.593 3.322-5.095 5.697-9.292 5.697-5.2 0-8.968-3.906-8.968-8.811h25.32zM912.38 201.173c0 5.7-2.92 10.867-9.13 10.867-5.363 0-8.813-4.22-8.813-10.498 0-5.695 3.08-10.55 9.183-10.55 5.362 0 8.76 4.43 8.76 10.181zm7.273 16.357v-41.254h-7.114v12.818c-2.868-3.218-5.626-4.536-10.086-4.536-10.244 0-15.712 7.755-15.712 16.776 0 8.705 5.043 16.982 15.448 16.982 7.007 0 10.562-5.061 10.562-5.061v4.275h6.902z"/><g><path fill="#FFF" d="M159.721 41.054c30.537.917.68 19.347 30.697 31.824 29.972 12.455 51.328-50.775 73.539-29.796-16.398 16.454-45.849 46.177-71.124 71.658-8.964-7.844-20.467-12.842-33.112-13.59V41.055"/><path fill="#FFF" d="M206.857 33.06c8.286 3.441 12.22 12.971 8.789 21.284-3.433 8.31-12.931 12.258-21.217 8.815-8.283-3.442-12.217-12.971-8.786-21.285 3.43-8.31 12.929-12.26 21.214-8.815"/><path fill="#C8A564" d="M240.232 77.26c20.945 22.316-13.159 14.163-.726 44.28 12.417 30.072 72.078.514 72.999 31.107-23.193 0-64.965.125-100.795.207-.853-12.665-5.936-24.166-13.839-33.097l42.361-42.496"/><path fill="#C8A564" d="M279.195 105.048c3.431 8.313-.502 17.84-8.79 21.283-8.284 3.444-17.782-.503-21.213-8.816-3.433-8.313.503-17.84 8.787-21.285 8.285-3.442 17.783.505 21.216 8.818"/><path fill="#FFF" d="M271.64 159.98c-.916 30.64-19.287.683-31.718 30.797-12.416 30.072 50.604 51.499 29.695 73.783-16.4-16.454-46.026-46-71.421-71.361a55.48 55.48 0 0013.542-33.22h59.903"/><path fill="#FFF" d="M279.604 207.272c-3.43 8.31-12.926 12.257-21.212 8.815-8.283-3.442-12.22-12.972-8.786-21.283 3.433-8.313 12.929-12.26 21.214-8.817 8.284 3.442 12.217 12.971 8.784 21.285"/><path fill="#C8A564" d="M235.55 240.755c-22.24 21.014-14.116-13.2-44.131-.726-29.973 12.458-.515 72.317-31.004 73.243 0-23.272-.125-65.182-.21-101.134 12.624-.856 24.087-5.953 32.99-13.88l42.354 42.497"/><path fill="#C8A564" d="M207.854 279.845c-8.284 3.445-17.78-.502-21.213-8.813-3.433-8.313.503-17.843 8.789-21.285 8.283-3.444 17.781.502 21.21 8.816 3.433 8.313-.498 17.84-8.786 21.282"/><path fill="#FFF" d="M153.104 272.268c-30.536-.92-.676-19.35-30.694-31.824-29.972-12.456-51.328 50.772-73.54 29.796 16.399-16.454 45.847-46.18 71.127-71.661 8.962 7.846 20.465 12.842 33.107 13.59v60.099"/><path fill="#FFF" d="M105.97 280.262c-8.285-3.444-12.218-12.971-8.788-21.285 3.433-8.313 12.93-12.26 21.215-8.817 8.285 3.444 12.22 12.972 8.788 21.285-3.433 8.313-12.929 12.26-21.214 8.817"/><path fill="#C8A564" d="M72.598 236.059c-20.944-22.316 13.157-14.163.724-44.28-12.417-30.072-72.077-.514-73-31.104 23.195 0 64.966-.125 100.796-.21a55.497 55.497 0 0013.836 33.1l-42.356 42.494"/><path fill="#C8A564" d="M33.635 208.271c-3.43-8.313.5-17.84 8.789-21.282 8.283-3.445 17.779.502 21.212 8.815 3.433 8.313-.503 17.84-8.786 21.285-8.286 3.442-17.784-.505-21.215-8.818"/><path fill="#FFF" d="M41.188 153.34c.918-30.64 19.287-.681 31.72-30.796 12.415-30.074-50.604-51.5-29.697-73.785 16.4 16.454 46.026 46 71.421 71.362a55.486 55.486 0 00-13.542 33.219H41.188"/><path fill="#FFF" d="M33.222 106.048c3.43-8.311 12.928-12.258 21.214-8.816 8.283 3.445 12.217 12.972 8.786 21.285-3.43 8.311-12.929 12.26-21.212 8.816-8.286-3.443-12.22-12.972-8.788-21.285"/><path fill="#C8A564" d="M77.277 72.566c22.241-21.016 14.118 13.199 44.135.727 29.97-12.458.51-72.317 31-73.243 0 23.27.124 65.18.21 101.131-12.625.856-24.085 5.954-32.99 13.882L77.278 72.566"/><path fill="#C8A564" d="M104.972 33.474c8.286-3.444 17.784.502 21.215 8.815 3.43 8.311-.503 17.84-8.786 21.285-8.286 3.443-17.784-.504-21.215-8.817-3.433-8.313.503-17.84 8.786-21.283"/></g></g></svg>